<svg width="739" height="106" viewBox="0 0 739 106" fill="none" xmlns="http://www.w3.org/2000/svg">
<mask id="path-1-outside-1_15_12" maskUnits="userSpaceOnUse" x="0.635498" y="0.42395" width="738" height="106" fill="black">
<rect fill="white" x="0.635498" y="0.42395" width="738" height="106"/>
<path d="M84.2835 50.152L68.2835 82.92C66.9182 85.6506 65.4675 87.6133 63.9315 88.808C62.3955 89.9173 60.5608 90.472 58.4275 90.472C55.6968 90.472 53.3928 89.5333 51.5155 87.656C49.6382 85.6933 47.2062 82.1946 44.2195 77.16L29.3715 50.152V86.376C29.3715 90.0453 28.5182 92.7333 26.8115 94.44C25.1902 96.1466 22.7155 97 19.3875 97C15.6328 97 12.9022 96.1893 11.1955 94.568C9.48883 92.8613 8.6355 89.576 8.6355 84.712V28.904C8.6355 22.3333 10.1288 17.384 13.1155 14.056C16.1022 10.728 21.1368 9.06395 28.2195 9.06395C30.8648 9.06395 33.1688 9.53328 35.1315 10.4719C37.0942 11.3253 38.5448 12.3493 39.4835 13.544C40.5075 14.6533 41.4888 16.0613 42.4275 17.768L59.5795 55.272L77.7555 18.408C80.9128 12.2639 86.5875 9.19195 94.7795 9.19195C98.6195 9.19195 101.905 9.87462 104.636 11.24C107.366 12.52 109.5 14.6533 111.036 17.64C112.657 20.5413 113.468 24.2106 113.468 28.6479V84.328C113.382 92.776 108.049 97 97.4675 97C93.6275 97 90.4702 95.976 87.9955 93.928C85.6062 91.7946 84.3688 88.3813 84.2835 83.688V50.152Z"/>
<path d="M155.607 69.992C155.607 74.856 157.485 77.2879 161.24 77.2879C162.52 77.2879 163.629 76.904 164.568 76.136C165.592 75.2826 166.36 74.1306 166.872 72.68C167.384 71.2293 167.639 69.5653 167.639 67.688V50.536C167.639 47.6346 168.152 45.1173 169.176 42.984C170.2 40.7653 171.693 39.0586 173.656 37.864C175.618 36.6693 177.922 36.072 180.568 36.072C185.176 36.072 188.76 37.096 191.32 39.144C193.88 41.1066 195.16 44.776 195.16 50.152V83.432C195.16 88.6373 194.093 92.2213 191.96 94.184C189.826 96.1466 186.071 97.128 180.695 97.128C178.391 97.128 176.429 96.9146 174.807 96.488C173.186 95.976 171.863 95.2506 170.839 94.312C169.901 93.3733 169.175 92.136 168.663 90.6C165.165 92.904 161.453 94.5253 157.527 95.464C153.687 96.4026 149.378 96.872 144.6 96.872C138.541 96.872 134.189 94.5253 131.544 89.832C128.898 85.0533 127.576 77.2453 127.576 66.408C127.576 61.032 127.703 56.68 127.959 53.352C128.215 49.9386 128.599 47.0373 129.111 44.648C129.709 42.1733 130.562 40.3386 131.672 39.144C132.866 37.9493 134.232 37.096 135.768 36.584C137.389 36.072 139.48 35.816 142.04 35.816C146.818 35.816 150.231 36.712 152.279 38.504C154.413 40.296 155.479 42.984 155.479 46.568L155.607 69.992Z"/>
<path d="M240.344 78.824H235.736C235.736 83.2613 234.456 87.4 231.896 91.24C229.336 95.08 225.922 97 221.656 97C216.877 97 213.335 95.6773 211.031 93.032C208.813 90.3013 207.703 85.5226 207.703 78.696V26.088C207.703 22.4186 208.301 19.4746 209.495 17.256C210.69 14.952 212.226 13.3306 214.104 12.392C216.066 11.4533 218.584 10.8986 221.656 10.728C226.946 10.728 230.487 12.52 232.279 16.104C234.071 19.6026 234.967 25.704 234.967 34.408C234.967 41.1493 234.584 47.08 233.816 52.2C234.413 54.0773 236.333 55.016 239.576 55.016C241.624 55.016 242.989 54.5893 243.671 53.736C244.439 52.7973 244.824 50.9626 244.824 48.232C244.824 44.2213 245.848 41.32 247.896 39.528C250.029 37.736 253.613 36.84 258.648 36.84C263.938 36.84 267.479 37.8213 269.271 39.784C271.149 41.6613 272.087 45.1173 272.087 50.152C272.087 55.4426 270.509 59.5386 267.352 62.44C264.194 65.3413 260.653 66.792 256.727 66.792C260.738 66.792 264.28 68.0293 267.352 70.504C270.509 72.8933 272.087 76.52 272.087 81.384C272.087 87.8693 271.192 92.0933 269.4 94.056C267.693 96.0186 264.109 97 258.648 97C253.613 97 250.029 96.104 247.896 94.312C245.848 92.4346 244.824 89.5333 244.824 85.608C244.824 83.6453 244.653 82.1946 244.311 81.256C243.97 80.232 243.501 79.592 242.904 79.336C242.392 78.9946 241.538 78.824 240.344 78.824Z"/>
<path d="M305.112 97.768C298.371 97.768 292.782 95.0373 288.345 89.576C283.907 84.0293 281.689 76.4773 281.689 66.92C281.689 57.192 283.864 49.4693 288.216 43.752C292.654 37.9493 298.286 35.048 305.112 35.048C312.024 35.048 318.424 37.48 324.312 42.344C326.616 38.0773 330.328 35.944 335.448 35.944C340.056 35.944 343.641 36.968 346.201 39.016C348.761 40.9786 350.04 44.648 350.04 50.024V83.304C350.04 88.424 348.974 92.008 346.84 94.056C344.707 96.0186 340.953 97 335.577 97C329.945 97 326.232 95.4213 324.44 92.264C318.979 95.9333 312.536 97.768 305.112 97.768ZM322.521 54.632C321.07 52.1573 319.192 50.92 316.888 50.92C314.67 50.92 312.878 52.5413 311.513 55.784C310.147 59.0266 309.465 62.7386 309.465 66.92C309.465 70.8453 310.104 74.344 311.384 77.416C312.664 80.488 314.456 82.024 316.76 82.024C319.15 82.024 321.07 80.872 322.521 78.568V54.632Z"/>
<path d="M394.844 78.824H390.236C390.236 83.2613 388.956 87.4 386.396 91.24C383.836 95.08 380.422 97 376.155 97C371.377 97 367.835 95.6773 365.531 93.032C363.313 90.3013 362.203 85.5226 362.203 78.696V26.088C362.203 22.4186 362.801 19.4746 363.995 17.256C365.19 14.952 366.726 13.3306 368.603 12.392C370.566 11.4533 373.083 10.8986 376.155 10.728C381.446 10.728 384.988 12.52 386.78 16.104C388.572 19.6026 389.467 25.704 389.467 34.408C389.467 41.1493 389.083 47.08 388.315 52.2C388.913 54.0773 390.833 55.016 394.076 55.016C396.124 55.016 397.489 54.5893 398.172 53.736C398.94 52.7973 399.323 50.9626 399.323 48.232C399.323 44.2213 400.348 41.32 402.396 39.528C404.529 37.736 408.113 36.84 413.147 36.84C418.438 36.84 421.979 37.8213 423.771 39.784C425.649 41.6613 426.587 45.1173 426.587 50.152C426.587 55.4426 425.009 59.5386 421.852 62.44C418.694 65.3413 415.153 66.792 411.228 66.792C415.238 66.792 418.78 68.0293 421.852 70.504C425.009 72.8933 426.587 76.52 426.587 81.384C426.587 87.8693 425.692 92.0933 423.9 94.056C422.193 96.0186 418.609 97 413.147 97C408.113 97 404.529 96.104 402.396 94.312C400.348 92.4346 399.323 89.5333 399.323 85.608C399.323 83.6453 399.153 82.1946 398.811 81.256C398.47 80.232 398.001 79.592 397.404 79.336C396.892 78.9946 396.038 78.824 394.844 78.824Z"/>
<path d="M436.316 18.1519C436.316 15.3359 437.511 13.0319 439.901 11.24C442.375 9.36262 445.831 8.42395 450.268 8.42395C459.57 8.42395 464.22 11.6666 464.22 18.1519C464.22 21.736 463.026 24.2533 460.637 25.7039C458.333 27.1546 454.876 27.88 450.268 27.88C446.258 27.88 442.93 27.112 440.284 25.576C437.639 24.04 436.316 21.5653 436.316 18.1519ZM464.092 83.304C464.092 88.424 463.026 92.008 460.892 94.056C458.759 96.0186 455.005 97 449.629 97C444.594 97 441.138 95.848 439.26 93.544C437.468 91.1546 436.573 87.272 436.573 81.896V50.408C436.573 46.056 437.725 42.5573 440.029 39.912C442.418 37.2666 445.575 35.944 449.5 35.944C454.108 35.944 457.693 36.968 460.253 39.016C462.813 40.9786 464.092 44.648 464.092 50.024V83.304Z"/>
<path d="M514.996 62.568C514.996 57.7893 513.119 55.4 509.365 55.4C507.573 55.4 506.079 56.168 504.884 57.704C503.775 59.1546 503.135 61.1173 502.965 63.592V83.304C502.965 88.5093 501.898 92.0933 499.764 94.056C497.631 96.0186 493.876 97 488.5 97C483.466 97 480.01 95.848 478.133 93.544C476.341 91.1546 475.444 87.272 475.444 81.896V50.408C475.444 46.056 476.597 42.5573 478.901 39.912C481.29 37.2666 484.447 35.944 488.372 35.944C491.615 35.944 494.346 36.4133 496.565 37.352C498.783 38.2906 500.447 39.912 501.556 42.216C508.212 37.864 516.319 35.688 525.877 35.688C531.935 35.688 536.287 38.0773 538.932 42.856C541.663 47.6346 543.029 55.4853 543.029 66.408C543.029 71.784 542.9 76.1786 542.644 79.5919C542.388 82.9199 541.962 85.8213 541.365 88.296C540.853 90.6853 539.999 92.4773 538.805 93.672C537.61 94.8666 536.202 95.72 534.581 96.232C533.045 96.744 531.039 97 528.565 97C523.786 97 520.33 96.104 518.197 94.312C516.149 92.52 515.125 89.8746 515.125 86.376L514.996 62.568Z"/>
<path d="M611.664 77.8C611.664 82.664 611.066 86.5466 609.872 89.448C608.677 92.264 607.013 94.2266 604.88 95.336C602.832 96.4453 600.101 97 596.688 97C591.653 97 587.984 95.6773 585.68 93.032C583.461 90.3013 582.309 85.5226 582.224 78.696L581.968 31.464H571.088C565.712 31.464 561.658 30.6106 558.927 28.904C556.282 27.1973 554.959 24.1679 554.959 19.8159C554.959 17.1706 555.471 15.08 556.495 13.544C557.605 12.008 559.226 10.9413 561.359 10.3439C563.493 9.66128 566.351 9.31995 569.935 9.31995H624.719C629.498 9.31995 632.954 10.1733 635.088 11.88C637.221 13.5866 638.287 16.5306 638.287 20.712C638.287 23.528 637.647 25.7466 636.367 27.368C635.173 28.904 633.551 29.9706 631.503 30.5679C629.455 31.1653 626.81 31.464 623.568 31.464H611.664V77.8Z"/>
<path d="M688.179 76.136C692.531 76.136 695.347 75.0266 696.627 72.808C697.992 70.5893 698.674 66.792 698.674 61.416C698.674 58.856 698.674 52.968 698.674 43.752C698.76 34.4506 698.802 27.368 698.802 22.504C698.802 17.9813 699.869 14.6959 702.003 12.6479C704.221 10.5146 707.976 9.44795 713.266 9.44795C717.96 9.44795 721.459 10.6426 723.763 13.032C726.067 15.336 727.688 19.6026 728.627 25.8319C729.565 31.9759 730.034 41.3626 730.034 53.992C730.034 59.368 729.395 64.2746 728.115 68.712C726.92 73.1493 725.213 76.9466 722.995 80.104C720.861 83.176 718.429 85.9066 715.698 88.296C712.968 90.6 710.024 92.4346 706.867 93.8C703.709 95.1653 700.595 96.1893 697.523 96.872C694.451 97.5546 691.421 97.896 688.435 97.896C684.765 97.896 681.053 97.4693 677.299 96.616C673.629 95.6773 669.874 94.0986 666.034 91.88C662.28 89.6613 658.952 86.9733 656.05 83.816C653.149 80.5733 650.76 76.392 648.883 71.272C647.091 66.0666 646.195 60.3066 646.195 53.992C646.195 41.3626 646.706 31.9759 647.73 25.8319C648.754 19.6026 650.504 15.336 652.979 13.032C655.453 10.6426 659.25 9.44795 664.37 9.44795C669.149 9.44795 672.52 10.5146 674.482 12.6479C676.445 14.6959 677.427 17.9813 677.427 22.504C677.427 27.4533 677.427 34.5359 677.427 43.752C677.512 52.8826 677.555 58.728 677.555 61.288C677.555 63.5066 677.597 65.2986 677.682 66.664C677.853 67.944 678.109 69.2666 678.451 70.632C678.877 71.9973 679.474 73.064 680.242 73.832C681.01 74.5146 682.035 75.0693 683.315 75.496C684.595 75.9226 686.216 76.136 688.179 76.136Z"/>
</mask>
<path d="M84.2835 50.152L68.2835 82.92C66.9182 85.6506 65.4675 87.6133 63.9315 88.808C62.3955 89.9173 60.5608 90.472 58.4275 90.472C55.6968 90.472 53.3928 89.5333 51.5155 87.656C49.6382 85.6933 47.2062 82.1946 44.2195 77.16L29.3715 50.152V86.376C29.3715 90.0453 28.5182 92.7333 26.8115 94.44C25.1902 96.1466 22.7155 97 19.3875 97C15.6328 97 12.9022 96.1893 11.1955 94.568C9.48883 92.8613 8.6355 89.576 8.6355 84.712V28.904C8.6355 22.3333 10.1288 17.384 13.1155 14.056C16.1022 10.728 21.1368 9.06395 28.2195 9.06395C30.8648 9.06395 33.1688 9.53328 35.1315 10.4719C37.0942 11.3253 38.5448 12.3493 39.4835 13.544C40.5075 14.6533 41.4888 16.0613 42.4275 17.768L59.5795 55.272L77.7555 18.408C80.9128 12.2639 86.5875 9.19195 94.7795 9.19195C98.6195 9.19195 101.905 9.87462 104.636 11.24C107.366 12.52 109.5 14.6533 111.036 17.64C112.657 20.5413 113.468 24.2106 113.468 28.6479V84.328C113.382 92.776 108.049 97 97.4675 97C93.6275 97 90.4702 95.976 87.9955 93.928C85.6062 91.7946 84.3688 88.3813 84.2835 83.688V50.152Z" fill="#030712"/>
<path d="M155.607 69.992C155.607 74.856 157.485 77.2879 161.24 77.2879C162.52 77.2879 163.629 76.904 164.568 76.136C165.592 75.2826 166.36 74.1306 166.872 72.68C167.384 71.2293 167.639 69.5653 167.639 67.688V50.536C167.639 47.6346 168.152 45.1173 169.176 42.984C170.2 40.7653 171.693 39.0586 173.656 37.864C175.618 36.6693 177.922 36.072 180.568 36.072C185.176 36.072 188.76 37.096 191.32 39.144C193.88 41.1066 195.16 44.776 195.16 50.152V83.432C195.16 88.6373 194.093 92.2213 191.96 94.184C189.826 96.1466 186.071 97.128 180.695 97.128C178.391 97.128 176.429 96.9146 174.807 96.488C173.186 95.976 171.863 95.2506 170.839 94.312C169.901 93.3733 169.175 92.136 168.663 90.6C165.165 92.904 161.453 94.5253 157.527 95.464C153.687 96.4026 149.378 96.872 144.6 96.872C138.541 96.872 134.189 94.5253 131.544 89.832C128.898 85.0533 127.576 77.2453 127.576 66.408C127.576 61.032 127.703 56.68 127.959 53.352C128.215 49.9386 128.599 47.0373 129.111 44.648C129.709 42.1733 130.562 40.3386 131.672 39.144C132.866 37.9493 134.232 37.096 135.768 36.584C137.389 36.072 139.48 35.816 142.04 35.816C146.818 35.816 150.231 36.712 152.279 38.504C154.413 40.296 155.479 42.984 155.479 46.568L155.607 69.992Z" fill="#030712"/>
<path d="M240.344 78.824H235.736C235.736 83.2613 234.456 87.4 231.896 91.24C229.336 95.08 225.922 97 221.656 97C216.877 97 213.335 95.6773 211.031 93.032C208.813 90.3013 207.703 85.5226 207.703 78.696V26.088C207.703 22.4186 208.301 19.4746 209.495 17.256C210.69 14.952 212.226 13.3306 214.104 12.392C216.066 11.4533 218.584 10.8986 221.656 10.728C226.946 10.728 230.487 12.52 232.279 16.104C234.071 19.6026 234.967 25.704 234.967 34.408C234.967 41.1493 234.584 47.08 233.816 52.2C234.413 54.0773 236.333 55.016 239.576 55.016C241.624 55.016 242.989 54.5893 243.671 53.736C244.439 52.7973 244.824 50.9626 244.824 48.232C244.824 44.2213 245.848 41.32 247.896 39.528C250.029 37.736 253.613 36.84 258.648 36.84C263.938 36.84 267.479 37.8213 269.271 39.784C271.149 41.6613 272.087 45.1173 272.087 50.152C272.087 55.4426 270.509 59.5386 267.352 62.44C264.194 65.3413 260.653 66.792 256.727 66.792C260.738 66.792 264.28 68.0293 267.352 70.504C270.509 72.8933 272.087 76.52 272.087 81.384C272.087 87.8693 271.192 92.0933 269.4 94.056C267.693 96.0186 264.109 97 258.648 97C253.613 97 250.029 96.104 247.896 94.312C245.848 92.4346 244.824 89.5333 244.824 85.608C244.824 83.6453 244.653 82.1946 244.311 81.256C243.97 80.232 243.501 79.592 242.904 79.336C242.392 78.9946 241.538 78.824 240.344 78.824Z" fill="#030712"/>
<path d="M305.112 97.768C298.371 97.768 292.782 95.0373 288.345 89.576C283.907 84.0293 281.689 76.4773 281.689 66.92C281.689 57.192 283.864 49.4693 288.216 43.752C292.654 37.9493 298.286 35.048 305.112 35.048C312.024 35.048 318.424 37.48 324.312 42.344C326.616 38.0773 330.328 35.944 335.448 35.944C340.056 35.944 343.641 36.968 346.201 39.016C348.761 40.9786 350.04 44.648 350.04 50.024V83.304C350.04 88.424 348.974 92.008 346.84 94.056C344.707 96.0186 340.953 97 335.577 97C329.945 97 326.232 95.4213 324.44 92.264C318.979 95.9333 312.536 97.768 305.112 97.768ZM322.521 54.632C321.07 52.1573 319.192 50.92 316.888 50.92C314.67 50.92 312.878 52.5413 311.513 55.784C310.147 59.0266 309.465 62.7386 309.465 66.92C309.465 70.8453 310.104 74.344 311.384 77.416C312.664 80.488 314.456 82.024 316.76 82.024C319.15 82.024 321.07 80.872 322.521 78.568V54.632Z" fill="#030712"/>
<path d="M394.844 78.824H390.236C390.236 83.2613 388.956 87.4 386.396 91.24C383.836 95.08 380.422 97 376.155 97C371.377 97 367.835 95.6773 365.531 93.032C363.313 90.3013 362.203 85.5226 362.203 78.696V26.088C362.203 22.4186 362.801 19.4746 363.995 17.256C365.19 14.952 366.726 13.3306 368.603 12.392C370.566 11.4533 373.083 10.8986 376.155 10.728C381.446 10.728 384.988 12.52 386.78 16.104C388.572 19.6026 389.467 25.704 389.467 34.408C389.467 41.1493 389.083 47.08 388.315 52.2C388.913 54.0773 390.833 55.016 394.076 55.016C396.124 55.016 397.489 54.5893 398.172 53.736C398.94 52.7973 399.323 50.9626 399.323 48.232C399.323 44.2213 400.348 41.32 402.396 39.528C404.529 37.736 408.113 36.84 413.147 36.84C418.438 36.84 421.979 37.8213 423.771 39.784C425.649 41.6613 426.587 45.1173 426.587 50.152C426.587 55.4426 425.009 59.5386 421.852 62.44C418.694 65.3413 415.153 66.792 411.228 66.792C415.238 66.792 418.78 68.0293 421.852 70.504C425.009 72.8933 426.587 76.52 426.587 81.384C426.587 87.8693 425.692 92.0933 423.9 94.056C422.193 96.0186 418.609 97 413.147 97C408.113 97 404.529 96.104 402.396 94.312C400.348 92.4346 399.323 89.5333 399.323 85.608C399.323 83.6453 399.153 82.1946 398.811 81.256C398.47 80.232 398.001 79.592 397.404 79.336C396.892 78.9946 396.038 78.824 394.844 78.824Z" fill="#030712"/>
<path d="M436.316 18.1519C436.316 15.3359 437.511 13.0319 439.901 11.24C442.375 9.36262 445.831 8.42395 450.268 8.42395C459.57 8.42395 464.22 11.6666 464.22 18.1519C464.22 21.736 463.026 24.2533 460.637 25.7039C458.333 27.1546 454.876 27.88 450.268 27.88C446.258 27.88 442.93 27.112 440.284 25.576C437.639 24.04 436.316 21.5653 436.316 18.1519ZM464.092 83.304C464.092 88.424 463.026 92.008 460.892 94.056C458.759 96.0186 455.005 97 449.629 97C444.594 97 441.138 95.848 439.26 93.544C437.468 91.1546 436.573 87.272 436.573 81.896V50.408C436.573 46.056 437.725 42.5573 440.029 39.912C442.418 37.2666 445.575 35.944 449.5 35.944C454.108 35.944 457.693 36.968 460.253 39.016C462.813 40.9786 464.092 44.648 464.092 50.024V83.304Z" fill="#030712"/>
<path d="M514.996 62.568C514.996 57.7893 513.119 55.4 509.365 55.4C507.573 55.4 506.079 56.168 504.884 57.704C503.775 59.1546 503.135 61.1173 502.965 63.592V83.304C502.965 88.5093 501.898 92.0933 499.764 94.056C497.631 96.0186 493.876 97 488.5 97C483.466 97 480.01 95.848 478.133 93.544C476.341 91.1546 475.444 87.272 475.444 81.896V50.408C475.444 46.056 476.597 42.5573 478.901 39.912C481.29 37.2666 484.447 35.944 488.372 35.944C491.615 35.944 494.346 36.4133 496.565 37.352C498.783 38.2906 500.447 39.912 501.556 42.216C508.212 37.864 516.319 35.688 525.877 35.688C531.935 35.688 536.287 38.0773 538.932 42.856C541.663 47.6346 543.029 55.4853 543.029 66.408C543.029 71.784 542.9 76.1786 542.644 79.5919C542.388 82.9199 541.962 85.8213 541.365 88.296C540.853 90.6853 539.999 92.4773 538.805 93.672C537.61 94.8666 536.202 95.72 534.581 96.232C533.045 96.744 531.039 97 528.565 97C523.786 97 520.33 96.104 518.197 94.312C516.149 92.52 515.125 89.8746 515.125 86.376L514.996 62.568Z" fill="#030712"/>
<path d="M611.664 77.8C611.664 82.664 611.066 86.5466 609.872 89.448C608.677 92.264 607.013 94.2266 604.88 95.336C602.832 96.4453 600.101 97 596.688 97C591.653 97 587.984 95.6773 585.68 93.032C583.461 90.3013 582.309 85.5226 582.224 78.696L581.968 31.464H571.088C565.712 31.464 561.658 30.6106 558.927 28.904C556.282 27.1973 554.959 24.1679 554.959 19.8159C554.959 17.1706 555.471 15.08 556.495 13.544C557.605 12.008 559.226 10.9413 561.359 10.3439C563.493 9.66128 566.351 9.31995 569.935 9.31995H624.719C629.498 9.31995 632.954 10.1733 635.088 11.88C637.221 13.5866 638.287 16.5306 638.287 20.712C638.287 23.528 637.647 25.7466 636.367 27.368C635.173 28.904 633.551 29.9706 631.503 30.5679C629.455 31.1653 626.81 31.464 623.568 31.464H611.664V77.8Z" fill="#030712"/>
<path d="M688.179 76.136C692.531 76.136 695.347 75.0266 696.627 72.808C697.992 70.5893 698.674 66.792 698.674 61.416C698.674 58.856 698.674 52.968 698.674 43.752C698.76 34.4506 698.802 27.368 698.802 22.504C698.802 17.9813 699.869 14.6959 702.003 12.6479C704.221 10.5146 707.976 9.44795 713.266 9.44795C717.96 9.44795 721.459 10.6426 723.763 13.032C726.067 15.336 727.688 19.6026 728.627 25.8319C729.565 31.9759 730.034 41.3626 730.034 53.992C730.034 59.368 729.395 64.2746 728.115 68.712C726.92 73.1493 725.213 76.9466 722.995 80.104C720.861 83.176 718.429 85.9066 715.698 88.296C712.968 90.6 710.024 92.4346 706.867 93.8C703.709 95.1653 700.595 96.1893 697.523 96.872C694.451 97.5546 691.421 97.896 688.435 97.896C684.765 97.896 681.053 97.4693 677.299 96.616C673.629 95.6773 669.874 94.0986 666.034 91.88C662.28 89.6613 658.952 86.9733 656.05 83.816C653.149 80.5733 650.76 76.392 648.883 71.272C647.091 66.0666 646.195 60.3066 646.195 53.992C646.195 41.3626 646.706 31.9759 647.73 25.8319C648.754 19.6026 650.504 15.336 652.979 13.032C655.453 10.6426 659.25 9.44795 664.37 9.44795C669.149 9.44795 672.52 10.5146 674.482 12.6479C676.445 14.6959 677.427 17.9813 677.427 22.504C677.427 27.4533 677.427 34.5359 677.427 43.752C677.512 52.8826 677.555 58.728 677.555 61.288C677.555 63.5066 677.597 65.2986 677.682 66.664C677.853 67.944 678.109 69.2666 678.451 70.632C678.877 71.9973 679.474 73.064 680.242 73.832C681.01 74.5146 682.035 75.0693 683.315 75.496C684.595 75.9226 686.216 76.136 688.179 76.136Z" fill="#030712"/>
<path d="M84.2835 50.152L68.2835 82.92C66.9182 85.6506 65.4675 87.6133 63.9315 88.808C62.3955 89.9173 60.5608 90.472 58.4275 90.472C55.6968 90.472 53.3928 89.5333 51.5155 87.656C49.6382 85.6933 47.2062 82.1946 44.2195 77.16L29.3715 50.152V86.376C29.3715 90.0453 28.5182 92.7333 26.8115 94.44C25.1902 96.1466 22.7155 97 19.3875 97C15.6328 97 12.9022 96.1893 11.1955 94.568C9.48883 92.8613 8.6355 89.576 8.6355 84.712V28.904C8.6355 22.3333 10.1288 17.384 13.1155 14.056C16.1022 10.728 21.1368 9.06395 28.2195 9.06395C30.8648 9.06395 33.1688 9.53328 35.1315 10.4719C37.0942 11.3253 38.5448 12.3493 39.4835 13.544C40.5075 14.6533 41.4888 16.0613 42.4275 17.768L59.5795 55.272L77.7555 18.408C80.9128 12.2639 86.5875 9.19195 94.7795 9.19195C98.6195 9.19195 101.905 9.87462 104.636 11.24C107.366 12.52 109.5 14.6533 111.036 17.64C112.657 20.5413 113.468 24.2106 113.468 28.6479V84.328C113.382 92.776 108.049 97 97.4675 97C93.6275 97 90.4702 95.976 87.9955 93.928C85.6062 91.7946 84.3688 88.3813 84.2835 83.688V50.152Z" stroke="#030712" stroke-width="16" mask="url(#path-1-outside-1_15_12)"/>
<path d="M155.607 69.992C155.607 74.856 157.485 77.2879 161.24 77.2879C162.52 77.2879 163.629 76.904 164.568 76.136C165.592 75.2826 166.36 74.1306 166.872 72.68C167.384 71.2293 167.639 69.5653 167.639 67.688V50.536C167.639 47.6346 168.152 45.1173 169.176 42.984C170.2 40.7653 171.693 39.0586 173.656 37.864C175.618 36.6693 177.922 36.072 180.568 36.072C185.176 36.072 188.76 37.096 191.32 39.144C193.88 41.1066 195.16 44.776 195.16 50.152V83.432C195.16 88.6373 194.093 92.2213 191.96 94.184C189.826 96.1466 186.071 97.128 180.695 97.128C178.391 97.128 176.429 96.9146 174.807 96.488C173.186 95.976 171.863 95.2506 170.839 94.312C169.901 93.3733 169.175 92.136 168.663 90.6C165.165 92.904 161.453 94.5253 157.527 95.464C153.687 96.4026 149.378 96.872 144.6 96.872C138.541 96.872 134.189 94.5253 131.544 89.832C128.898 85.0533 127.576 77.2453 127.576 66.408C127.576 61.032 127.703 56.68 127.959 53.352C128.215 49.9386 128.599 47.0373 129.111 44.648C129.709 42.1733 130.562 40.3386 131.672 39.144C132.866 37.9493 134.232 37.096 135.768 36.584C137.389 36.072 139.48 35.816 142.04 35.816C146.818 35.816 150.231 36.712 152.279 38.504C154.413 40.296 155.479 42.984 155.479 46.568L155.607 69.992Z" stroke="#030712" stroke-width="16" mask="url(#path-1-outside-1_15_12)"/>
<path d="M240.344 78.824H235.736C235.736 83.2613 234.456 87.4 231.896 91.24C229.336 95.08 225.922 97 221.656 97C216.877 97 213.335 95.6773 211.031 93.032C208.813 90.3013 207.703 85.5226 207.703 78.696V26.088C207.703 22.4186 208.301 19.4746 209.495 17.256C210.69 14.952 212.226 13.3306 214.104 12.392C216.066 11.4533 218.584 10.8986 221.656 10.728C226.946 10.728 230.487 12.52 232.279 16.104C234.071 19.6026 234.967 25.704 234.967 34.408C234.967 41.1493 234.584 47.08 233.816 52.2C234.413 54.0773 236.333 55.016 239.576 55.016C241.624 55.016 242.989 54.5893 243.671 53.736C244.439 52.7973 244.824 50.9626 244.824 48.232C244.824 44.2213 245.848 41.32 247.896 39.528C250.029 37.736 253.613 36.84 258.648 36.84C263.938 36.84 267.479 37.8213 269.271 39.784C271.149 41.6613 272.087 45.1173 272.087 50.152C272.087 55.4426 270.509 59.5386 267.352 62.44C264.194 65.3413 260.653 66.792 256.727 66.792C260.738 66.792 264.28 68.0293 267.352 70.504C270.509 72.8933 272.087 76.52 272.087 81.384C272.087 87.8693 271.192 92.0933 269.4 94.056C267.693 96.0186 264.109 97 258.648 97C253.613 97 250.029 96.104 247.896 94.312C245.848 92.4346 244.824 89.5333 244.824 85.608C244.824 83.6453 244.653 82.1946 244.311 81.256C243.97 80.232 243.501 79.592 242.904 79.336C242.392 78.9946 241.538 78.824 240.344 78.824Z" stroke="#030712" stroke-width="16" mask="url(#path-1-outside-1_15_12)"/>
<path d="M305.112 97.768C298.371 97.768 292.782 95.0373 288.345 89.576C283.907 84.0293 281.689 76.4773 281.689 66.92C281.689 57.192 283.864 49.4693 288.216 43.752C292.654 37.9493 298.286 35.048 305.112 35.048C312.024 35.048 318.424 37.48 324.312 42.344C326.616 38.0773 330.328 35.944 335.448 35.944C340.056 35.944 343.641 36.968 346.201 39.016C348.761 40.9786 350.04 44.648 350.04 50.024V83.304C350.04 88.424 348.974 92.008 346.84 94.056C344.707 96.0186 340.953 97 335.577 97C329.945 97 326.232 95.4213 324.44 92.264C318.979 95.9333 312.536 97.768 305.112 97.768ZM322.521 54.632C321.07 52.1573 319.192 50.92 316.888 50.92C314.67 50.92 312.878 52.5413 311.513 55.784C310.147 59.0266 309.465 62.7386 309.465 66.92C309.465 70.8453 310.104 74.344 311.384 77.416C312.664 80.488 314.456 82.024 316.76 82.024C319.15 82.024 321.07 80.872 322.521 78.568V54.632Z" stroke="#030712" stroke-width="16" mask="url(#path-1-outside-1_15_12)"/>
<path d="M394.844 78.824H390.236C390.236 83.2613 388.956 87.4 386.396 91.24C383.836 95.08 380.422 97 376.155 97C371.377 97 367.835 95.6773 365.531 93.032C363.313 90.3013 362.203 85.5226 362.203 78.696V26.088C362.203 22.4186 362.801 19.4746 363.995 17.256C365.19 14.952 366.726 13.3306 368.603 12.392C370.566 11.4533 373.083 10.8986 376.155 10.728C381.446 10.728 384.988 12.52 386.78 16.104C388.572 19.6026 389.467 25.704 389.467 34.408C389.467 41.1493 389.083 47.08 388.315 52.2C388.913 54.0773 390.833 55.016 394.076 55.016C396.124 55.016 397.489 54.5893 398.172 53.736C398.94 52.7973 399.323 50.9626 399.323 48.232C399.323 44.2213 400.348 41.32 402.396 39.528C404.529 37.736 408.113 36.84 413.147 36.84C418.438 36.84 421.979 37.8213 423.771 39.784C425.649 41.6613 426.587 45.1173 426.587 50.152C426.587 55.4426 425.009 59.5386 421.852 62.44C418.694 65.3413 415.153 66.792 411.228 66.792C415.238 66.792 418.78 68.0293 421.852 70.504C425.009 72.8933 426.587 76.52 426.587 81.384C426.587 87.8693 425.692 92.0933 423.9 94.056C422.193 96.0186 418.609 97 413.147 97C408.113 97 404.529 96.104 402.396 94.312C400.348 92.4346 399.323 89.5333 399.323 85.608C399.323 83.6453 399.153 82.1946 398.811 81.256C398.47 80.232 398.001 79.592 397.404 79.336C396.892 78.9946 396.038 78.824 394.844 78.824Z" stroke="#030712" stroke-width="16" mask="url(#path-1-outside-1_15_12)"/>
<path d="M436.316 18.1519C436.316 15.3359 437.511 13.0319 439.901 11.24C442.375 9.36262 445.831 8.42395 450.268 8.42395C459.57 8.42395 464.22 11.6666 464.22 18.1519C464.22 21.736 463.026 24.2533 460.637 25.7039C458.333 27.1546 454.876 27.88 450.268 27.88C446.258 27.88 442.93 27.112 440.284 25.576C437.639 24.04 436.316 21.5653 436.316 18.1519ZM464.092 83.304C464.092 88.424 463.026 92.008 460.892 94.056C458.759 96.0186 455.005 97 449.629 97C444.594 97 441.138 95.848 439.26 93.544C437.468 91.1546 436.573 87.272 436.573 81.896V50.408C436.573 46.056 437.725 42.5573 440.029 39.912C442.418 37.2666 445.575 35.944 449.5 35.944C454.108 35.944 457.693 36.968 460.253 39.016C462.813 40.9786 464.092 44.648 464.092 50.024V83.304Z" stroke="#030712" stroke-width="16" mask="url(#path-1-outside-1_15_12)"/>
<path d="M514.996 62.568C514.996 57.7893 513.119 55.4 509.365 55.4C507.573 55.4 506.079 56.168 504.884 57.704C503.775 59.1546 503.135 61.1173 502.965 63.592V83.304C502.965 88.5093 501.898 92.0933 499.764 94.056C497.631 96.0186 493.876 97 488.5 97C483.466 97 480.01 95.848 478.133 93.544C476.341 91.1546 475.444 87.272 475.444 81.896V50.408C475.444 46.056 476.597 42.5573 478.901 39.912C481.29 37.2666 484.447 35.944 488.372 35.944C491.615 35.944 494.346 36.4133 496.565 37.352C498.783 38.2906 500.447 39.912 501.556 42.216C508.212 37.864 516.319 35.688 525.877 35.688C531.935 35.688 536.287 38.0773 538.932 42.856C541.663 47.6346 543.029 55.4853 543.029 66.408C543.029 71.784 542.9 76.1786 542.644 79.5919C542.388 82.9199 541.962 85.8213 541.365 88.296C540.853 90.6853 539.999 92.4773 538.805 93.672C537.61 94.8666 536.202 95.72 534.581 96.232C533.045 96.744 531.039 97 528.565 97C523.786 97 520.33 96.104 518.197 94.312C516.149 92.52 515.125 89.8746 515.125 86.376L514.996 62.568Z" stroke="#030712" stroke-width="16" mask="url(#path-1-outside-1_15_12)"/>
<path d="M611.664 77.8C611.664 82.664 611.066 86.5466 609.872 89.448C608.677 92.264 607.013 94.2266 604.88 95.336C602.832 96.4453 600.101 97 596.688 97C591.653 97 587.984 95.6773 585.68 93.032C583.461 90.3013 582.309 85.5226 582.224 78.696L581.968 31.464H571.088C565.712 31.464 561.658 30.6106 558.927 28.904C556.282 27.1973 554.959 24.1679 554.959 19.8159C554.959 17.1706 555.471 15.08 556.495 13.544C557.605 12.008 559.226 10.9413 561.359 10.3439C563.493 9.66128 566.351 9.31995 569.935 9.31995H624.719C629.498 9.31995 632.954 10.1733 635.088 11.88C637.221 13.5866 638.287 16.5306 638.287 20.712C638.287 23.528 637.647 25.7466 636.367 27.368C635.173 28.904 633.551 29.9706 631.503 30.5679C629.455 31.1653 626.81 31.464 623.568 31.464H611.664V77.8Z" stroke="#030712" stroke-width="16" mask="url(#path-1-outside-1_15_12)"/>
<path d="M688.179 76.136C692.531 76.136 695.347 75.0266 696.627 72.808C697.992 70.5893 698.674 66.792 698.674 61.416C698.674 58.856 698.674 52.968 698.674 43.752C698.76 34.4506 698.802 27.368 698.802 22.504C698.802 17.9813 699.869 14.6959 702.003 12.6479C704.221 10.5146 707.976 9.44795 713.266 9.44795C717.96 9.44795 721.459 10.6426 723.763 13.032C726.067 15.336 727.688 19.6026 728.627 25.8319C729.565 31.9759 730.034 41.3626 730.034 53.992C730.034 59.368 729.395 64.2746 728.115 68.712C726.92 73.1493 725.213 76.9466 722.995 80.104C720.861 83.176 718.429 85.9066 715.698 88.296C712.968 90.6 710.024 92.4346 706.867 93.8C703.709 95.1653 700.595 96.1893 697.523 96.872C694.451 97.5546 691.421 97.896 688.435 97.896C684.765 97.896 681.053 97.4693 677.299 96.616C673.629 95.6773 669.874 94.0986 666.034 91.88C662.28 89.6613 658.952 86.9733 656.05 83.816C653.149 80.5733 650.76 76.392 648.883 71.272C647.091 66.0666 646.195 60.3066 646.195 53.992C646.195 41.3626 646.706 31.9759 647.73 25.8319C648.754 19.6026 650.504 15.336 652.979 13.032C655.453 10.6426 659.25 9.44795 664.37 9.44795C669.149 9.44795 672.52 10.5146 674.482 12.6479C676.445 14.6959 677.427 17.9813 677.427 22.504C677.427 27.4533 677.427 34.5359 677.427 43.752C677.512 52.8826 677.555 58.728 677.555 61.288C677.555 63.5066 677.597 65.2986 677.682 66.664C677.853 67.944 678.109 69.2666 678.451 70.632C678.877 71.9973 679.474 73.064 680.242 73.832C681.01 74.5146 682.035 75.0693 683.315 75.496C684.595 75.9226 686.216 76.136 688.179 76.136Z" stroke="#030712" stroke-width="16" mask="url(#path-1-outside-1_15_12)"/>
<mask id="path-2-outside-2_15_12" maskUnits="userSpaceOnUse" x="4.6355" y="4.42395" width="730" height="98" fill="black">
<rect fill="white" x="4.6355" y="4.42395" width="730" height="98"/>
<path d="M84.2835 50.152L68.2835 82.92C66.9182 85.6506 65.4675 87.6133 63.9315 88.808C62.3955 89.9173 60.5608 90.472 58.4275 90.472C55.6968 90.472 53.3928 89.5333 51.5155 87.656C49.6382 85.6933 47.2062 82.1946 44.2195 77.16L29.3715 50.152V86.376C29.3715 90.0453 28.5182 92.7333 26.8115 94.44C25.1902 96.1466 22.7155 97 19.3875 97C15.6328 97 12.9022 96.1893 11.1955 94.568C9.48883 92.8613 8.6355 89.576 8.6355 84.712V28.904C8.6355 22.3333 10.1288 17.384 13.1155 14.056C16.1022 10.728 21.1368 9.06395 28.2195 9.06395C30.8648 9.06395 33.1688 9.53328 35.1315 10.4719C37.0942 11.3253 38.5448 12.3493 39.4835 13.544C40.5075 14.6533 41.4888 16.0613 42.4275 17.768L59.5795 55.272L77.7555 18.408C80.9128 12.2639 86.5875 9.19195 94.7795 9.19195C98.6195 9.19195 101.905 9.87462 104.636 11.24C107.366 12.52 109.5 14.6533 111.036 17.64C112.657 20.5413 113.468 24.2106 113.468 28.6479V84.328C113.382 92.776 108.049 97 97.4675 97C93.6275 97 90.4702 95.976 87.9955 93.928C85.6062 91.7946 84.3688 88.3813 84.2835 83.688V50.152Z"/>
<path d="M155.607 69.992C155.607 74.856 157.485 77.2879 161.24 77.2879C162.52 77.2879 163.629 76.904 164.568 76.136C165.592 75.2826 166.36 74.1306 166.872 72.68C167.384 71.2293 167.639 69.5653 167.639 67.688V50.536C167.639 47.6346 168.152 45.1173 169.176 42.984C170.2 40.7653 171.693 39.0586 173.656 37.864C175.618 36.6693 177.922 36.072 180.568 36.072C185.176 36.072 188.76 37.096 191.32 39.144C193.88 41.1066 195.16 44.776 195.16 50.152V83.432C195.16 88.6373 194.093 92.2213 191.96 94.184C189.826 96.1466 186.071 97.128 180.695 97.128C178.391 97.128 176.429 96.9146 174.807 96.488C173.186 95.976 171.863 95.2506 170.839 94.312C169.901 93.3733 169.175 92.136 168.663 90.6C165.165 92.904 161.453 94.5253 157.527 95.464C153.687 96.4026 149.378 96.872 144.6 96.872C138.541 96.872 134.189 94.5253 131.544 89.832C128.898 85.0533 127.576 77.2453 127.576 66.408C127.576 61.032 127.703 56.68 127.959 53.352C128.215 49.9386 128.599 47.0373 129.111 44.648C129.709 42.1733 130.562 40.3386 131.672 39.144C132.866 37.9493 134.232 37.096 135.768 36.584C137.389 36.072 139.48 35.816 142.04 35.816C146.818 35.816 150.231 36.712 152.279 38.504C154.413 40.296 155.479 42.984 155.479 46.568L155.607 69.992Z"/>
<path d="M240.344 78.824H235.736C235.736 83.2613 234.456 87.4 231.896 91.24C229.336 95.08 225.922 97 221.656 97C216.877 97 213.335 95.6773 211.031 93.032C208.813 90.3013 207.703 85.5226 207.703 78.696V26.088C207.703 22.4186 208.301 19.4746 209.495 17.256C210.69 14.952 212.226 13.3306 214.104 12.392C216.066 11.4533 218.584 10.8986 221.656 10.728C226.946 10.728 230.487 12.52 232.279 16.104C234.071 19.6026 234.967 25.704 234.967 34.408C234.967 41.1493 234.584 47.08 233.816 52.2C234.413 54.0773 236.333 55.016 239.576 55.016C241.624 55.016 242.989 54.5893 243.671 53.736C244.439 52.7973 244.824 50.9626 244.824 48.232C244.824 44.2213 245.848 41.32 247.896 39.528C250.029 37.736 253.613 36.84 258.648 36.84C263.938 36.84 267.479 37.8213 269.271 39.784C271.149 41.6613 272.087 45.1173 272.087 50.152C272.087 55.4426 270.509 59.5386 267.352 62.44C264.194 65.3413 260.653 66.792 256.727 66.792C260.738 66.792 264.28 68.0293 267.352 70.504C270.509 72.8933 272.087 76.52 272.087 81.384C272.087 87.8693 271.192 92.0933 269.4 94.056C267.693 96.0186 264.109 97 258.648 97C253.613 97 250.029 96.104 247.896 94.312C245.848 92.4346 244.824 89.5333 244.824 85.608C244.824 83.6453 244.653 82.1946 244.311 81.256C243.97 80.232 243.501 79.592 242.904 79.336C242.392 78.9946 241.538 78.824 240.344 78.824Z"/>
<path d="M305.112 97.768C298.371 97.768 292.782 95.0373 288.345 89.576C283.907 84.0293 281.689 76.4773 281.689 66.92C281.689 57.192 283.864 49.4693 288.216 43.752C292.654 37.9493 298.286 35.048 305.112 35.048C312.024 35.048 318.424 37.48 324.312 42.344C326.616 38.0773 330.328 35.944 335.448 35.944C340.056 35.944 343.641 36.968 346.201 39.016C348.761 40.9786 350.04 44.648 350.04 50.024V83.304C350.04 88.424 348.974 92.008 346.84 94.056C344.707 96.0186 340.953 97 335.577 97C329.945 97 326.232 95.4213 324.44 92.264C318.979 95.9333 312.536 97.768 305.112 97.768ZM322.521 54.632C321.07 52.1573 319.192 50.92 316.888 50.92C314.67 50.92 312.878 52.5413 311.513 55.784C310.147 59.0266 309.465 62.7386 309.465 66.92C309.465 70.8453 310.104 74.344 311.384 77.416C312.664 80.488 314.456 82.024 316.76 82.024C319.15 82.024 321.07 80.872 322.521 78.568V54.632Z"/>
<path d="M394.844 78.824H390.236C390.236 83.2613 388.956 87.4 386.396 91.24C383.836 95.08 380.422 97 376.155 97C371.377 97 367.835 95.6773 365.531 93.032C363.313 90.3013 362.203 85.5226 362.203 78.696V26.088C362.203 22.4186 362.801 19.4746 363.995 17.256C365.19 14.952 366.726 13.3306 368.603 12.392C370.566 11.4533 373.083 10.8986 376.155 10.728C381.446 10.728 384.988 12.52 386.78 16.104C388.572 19.6026 389.467 25.704 389.467 34.408C389.467 41.1493 389.083 47.08 388.315 52.2C388.913 54.0773 390.833 55.016 394.076 55.016C396.124 55.016 397.489 54.5893 398.172 53.736C398.94 52.7973 399.323 50.9626 399.323 48.232C399.323 44.2213 400.348 41.32 402.396 39.528C404.529 37.736 408.113 36.84 413.147 36.84C418.438 36.84 421.979 37.8213 423.771 39.784C425.649 41.6613 426.587 45.1173 426.587 50.152C426.587 55.4426 425.009 59.5386 421.852 62.44C418.694 65.3413 415.153 66.792 411.228 66.792C415.238 66.792 418.78 68.0293 421.852 70.504C425.009 72.8933 426.587 76.52 426.587 81.384C426.587 87.8693 425.692 92.0933 423.9 94.056C422.193 96.0186 418.609 97 413.147 97C408.113 97 404.529 96.104 402.396 94.312C400.348 92.4346 399.323 89.5333 399.323 85.608C399.323 83.6453 399.153 82.1946 398.811 81.256C398.47 80.232 398.001 79.592 397.404 79.336C396.892 78.9946 396.038 78.824 394.844 78.824Z"/>
<path d="M436.316 18.1519C436.316 15.3359 437.511 13.0319 439.901 11.24C442.375 9.36262 445.831 8.42395 450.268 8.42395C459.57 8.42395 464.22 11.6666 464.22 18.1519C464.22 21.736 463.026 24.2533 460.637 25.7039C458.333 27.1546 454.876 27.88 450.268 27.88C446.258 27.88 442.93 27.112 440.284 25.576C437.639 24.04 436.316 21.5653 436.316 18.1519ZM464.092 83.304C464.092 88.424 463.026 92.008 460.892 94.056C458.759 96.0186 455.005 97 449.629 97C444.594 97 441.138 95.848 439.26 93.544C437.468 91.1546 436.573 87.272 436.573 81.896V50.408C436.573 46.056 437.725 42.5573 440.029 39.912C442.418 37.2666 445.575 35.944 449.5 35.944C454.108 35.944 457.693 36.968 460.253 39.016C462.813 40.9786 464.092 44.648 464.092 50.024V83.304Z"/>
<path d="M514.996 62.568C514.996 57.7893 513.119 55.4 509.365 55.4C507.573 55.4 506.079 56.168 504.884 57.704C503.775 59.1546 503.135 61.1173 502.965 63.592V83.304C502.965 88.5093 501.898 92.0933 499.764 94.056C497.631 96.0186 493.876 97 488.5 97C483.466 97 480.01 95.848 478.133 93.544C476.341 91.1546 475.444 87.272 475.444 81.896V50.408C475.444 46.056 476.597 42.5573 478.901 39.912C481.29 37.2666 484.447 35.944 488.372 35.944C491.615 35.944 494.346 36.4133 496.565 37.352C498.783 38.2906 500.447 39.912 501.556 42.216C508.212 37.864 516.319 35.688 525.877 35.688C531.935 35.688 536.287 38.0773 538.932 42.856C541.663 47.6346 543.029 55.4853 543.029 66.408C543.029 71.784 542.9 76.1786 542.644 79.5919C542.388 82.9199 541.962 85.8213 541.365 88.296C540.853 90.6853 539.999 92.4773 538.805 93.672C537.61 94.8666 536.202 95.72 534.581 96.232C533.045 96.744 531.039 97 528.565 97C523.786 97 520.33 96.104 518.197 94.312C516.149 92.52 515.125 89.8746 515.125 86.376L514.996 62.568Z"/>
<path d="M611.664 77.8C611.664 82.664 611.066 86.5466 609.872 89.448C608.677 92.264 607.013 94.2266 604.88 95.336C602.832 96.4453 600.101 97 596.688 97C591.653 97 587.984 95.6773 585.68 93.032C583.461 90.3013 582.309 85.5226 582.224 78.696L581.968 31.464H571.088C565.712 31.464 561.658 30.6106 558.927 28.904C556.282 27.1973 554.959 24.1679 554.959 19.8159C554.959 17.1706 555.471 15.08 556.495 13.544C557.605 12.008 559.226 10.9413 561.359 10.3439C563.493 9.66128 566.351 9.31995 569.935 9.31995H624.719C629.498 9.31995 632.954 10.1733 635.088 11.88C637.221 13.5866 638.287 16.5306 638.287 20.712C638.287 23.528 637.647 25.7466 636.367 27.368C635.173 28.904 633.551 29.9706 631.503 30.5679C629.455 31.1653 626.81 31.464 623.568 31.464H611.664V77.8Z"/>
<path d="M688.179 76.136C692.531 76.136 695.347 75.0266 696.627 72.808C697.992 70.5893 698.674 66.792 698.674 61.416C698.674 58.856 698.674 52.968 698.674 43.752C698.76 34.4506 698.802 27.368 698.802 22.504C698.802 17.9813 699.869 14.6959 702.003 12.6479C704.221 10.5146 707.976 9.44795 713.266 9.44795C717.96 9.44795 721.459 10.6426 723.763 13.032C726.067 15.336 727.688 19.6026 728.627 25.8319C729.565 31.9759 730.034 41.3626 730.034 53.992C730.034 59.368 729.395 64.2746 728.115 68.712C726.92 73.1493 725.213 76.9466 722.995 80.104C720.861 83.176 718.429 85.9066 715.698 88.296C712.968 90.6 710.024 92.4346 706.867 93.8C703.709 95.1653 700.595 96.1893 697.523 96.872C694.451 97.5546 691.421 97.896 688.435 97.896C684.765 97.896 681.053 97.4693 677.299 96.616C673.629 95.6773 669.874 94.0986 666.034 91.88C662.28 89.6613 658.952 86.9733 656.05 83.816C653.149 80.5733 650.76 76.392 648.883 71.272C647.091 66.0666 646.195 60.3066 646.195 53.992C646.195 41.3626 646.706 31.9759 647.73 25.8319C648.754 19.6026 650.504 15.336 652.979 13.032C655.453 10.6426 659.25 9.44795 664.37 9.44795C669.149 9.44795 672.52 10.5146 674.482 12.6479C676.445 14.6959 677.427 17.9813 677.427 22.504C677.427 27.4533 677.427 34.5359 677.427 43.752C677.512 52.8826 677.555 58.728 677.555 61.288C677.555 63.5066 677.597 65.2986 677.682 66.664C677.853 67.944 678.109 69.2666 678.451 70.632C678.877 71.9973 679.474 73.064 680.242 73.832C681.01 74.5146 682.035 75.0693 683.315 75.496C684.595 75.9226 686.216 76.136 688.179 76.136Z"/>
</mask>
<path d="M84.2835 50.152L68.2835 82.92C66.9182 85.6506 65.4675 87.6133 63.9315 88.808C62.3955 89.9173 60.5608 90.472 58.4275 90.472C55.6968 90.472 53.3928 89.5333 51.5155 87.656C49.6382 85.6933 47.2062 82.1946 44.2195 77.16L29.3715 50.152V86.376C29.3715 90.0453 28.5182 92.7333 26.8115 94.44C25.1902 96.1466 22.7155 97 19.3875 97C15.6328 97 12.9022 96.1893 11.1955 94.568C9.48883 92.8613 8.6355 89.576 8.6355 84.712V28.904C8.6355 22.3333 10.1288 17.384 13.1155 14.056C16.1022 10.728 21.1368 9.06395 28.2195 9.06395C30.8648 9.06395 33.1688 9.53328 35.1315 10.4719C37.0942 11.3253 38.5448 12.3493 39.4835 13.544C40.5075 14.6533 41.4888 16.0613 42.4275 17.768L59.5795 55.272L77.7555 18.408C80.9128 12.2639 86.5875 9.19195 94.7795 9.19195C98.6195 9.19195 101.905 9.87462 104.636 11.24C107.366 12.52 109.5 14.6533 111.036 17.64C112.657 20.5413 113.468 24.2106 113.468 28.6479V84.328C113.382 92.776 108.049 97 97.4675 97C93.6275 97 90.4702 95.976 87.9955 93.928C85.6062 91.7946 84.3688 88.3813 84.2835 83.688V50.152Z" fill="#030712"/>
<path d="M155.607 69.992C155.607 74.856 157.485 77.2879 161.24 77.2879C162.52 77.2879 163.629 76.904 164.568 76.136C165.592 75.2826 166.36 74.1306 166.872 72.68C167.384 71.2293 167.639 69.5653 167.639 67.688V50.536C167.639 47.6346 168.152 45.1173 169.176 42.984C170.2 40.7653 171.693 39.0586 173.656 37.864C175.618 36.6693 177.922 36.072 180.568 36.072C185.176 36.072 188.76 37.096 191.32 39.144C193.88 41.1066 195.16 44.776 195.16 50.152V83.432C195.16 88.6373 194.093 92.2213 191.96 94.184C189.826 96.1466 186.071 97.128 180.695 97.128C178.391 97.128 176.429 96.9146 174.807 96.488C173.186 95.976 171.863 95.2506 170.839 94.312C169.901 93.3733 169.175 92.136 168.663 90.6C165.165 92.904 161.453 94.5253 157.527 95.464C153.687 96.4026 149.378 96.872 144.6 96.872C138.541 96.872 134.189 94.5253 131.544 89.832C128.898 85.0533 127.576 77.2453 127.576 66.408C127.576 61.032 127.703 56.68 127.959 53.352C128.215 49.9386 128.599 47.0373 129.111 44.648C129.709 42.1733 130.562 40.3386 131.672 39.144C132.866 37.9493 134.232 37.096 135.768 36.584C137.389 36.072 139.48 35.816 142.04 35.816C146.818 35.816 150.231 36.712 152.279 38.504C154.413 40.296 155.479 42.984 155.479 46.568L155.607 69.992Z" fill="#030712"/>
<path d="M240.344 78.824H235.736C235.736 83.2613 234.456 87.4 231.896 91.24C229.336 95.08 225.922 97 221.656 97C216.877 97 213.335 95.6773 211.031 93.032C208.813 90.3013 207.703 85.5226 207.703 78.696V26.088C207.703 22.4186 208.301 19.4746 209.495 17.256C210.69 14.952 212.226 13.3306 214.104 12.392C216.066 11.4533 218.584 10.8986 221.656 10.728C226.946 10.728 230.487 12.52 232.279 16.104C234.071 19.6026 234.967 25.704 234.967 34.408C234.967 41.1493 234.584 47.08 233.816 52.2C234.413 54.0773 236.333 55.016 239.576 55.016C241.624 55.016 242.989 54.5893 243.671 53.736C244.439 52.7973 244.824 50.9626 244.824 48.232C244.824 44.2213 245.848 41.32 247.896 39.528C250.029 37.736 253.613 36.84 258.648 36.84C263.938 36.84 267.479 37.8213 269.271 39.784C271.149 41.6613 272.087 45.1173 272.087 50.152C272.087 55.4426 270.509 59.5386 267.352 62.44C264.194 65.3413 260.653 66.792 256.727 66.792C260.738 66.792 264.28 68.0293 267.352 70.504C270.509 72.8933 272.087 76.52 272.087 81.384C272.087 87.8693 271.192 92.0933 269.4 94.056C267.693 96.0186 264.109 97 258.648 97C253.613 97 250.029 96.104 247.896 94.312C245.848 92.4346 244.824 89.5333 244.824 85.608C244.824 83.6453 244.653 82.1946 244.311 81.256C243.97 80.232 243.501 79.592 242.904 79.336C242.392 78.9946 241.538 78.824 240.344 78.824Z" fill="#030712"/>
<path d="M305.112 97.768C298.371 97.768 292.782 95.0373 288.345 89.576C283.907 84.0293 281.689 76.4773 281.689 66.92C281.689 57.192 283.864 49.4693 288.216 43.752C292.654 37.9493 298.286 35.048 305.112 35.048C312.024 35.048 318.424 37.48 324.312 42.344C326.616 38.0773 330.328 35.944 335.448 35.944C340.056 35.944 343.641 36.968 346.201 39.016C348.761 40.9786 350.04 44.648 350.04 50.024V83.304C350.04 88.424 348.974 92.008 346.84 94.056C344.707 96.0186 340.953 97 335.577 97C329.945 97 326.232 95.4213 324.44 92.264C318.979 95.9333 312.536 97.768 305.112 97.768ZM322.521 54.632C321.07 52.1573 319.192 50.92 316.888 50.92C314.67 50.92 312.878 52.5413 311.513 55.784C310.147 59.0266 309.465 62.7386 309.465 66.92C309.465 70.8453 310.104 74.344 311.384 77.416C312.664 80.488 314.456 82.024 316.76 82.024C319.15 82.024 321.07 80.872 322.521 78.568V54.632Z" fill="#030712"/>
<path d="M394.844 78.824H390.236C390.236 83.2613 388.956 87.4 386.396 91.24C383.836 95.08 380.422 97 376.155 97C371.377 97 367.835 95.6773 365.531 93.032C363.313 90.3013 362.203 85.5226 362.203 78.696V26.088C362.203 22.4186 362.801 19.4746 363.995 17.256C365.19 14.952 366.726 13.3306 368.603 12.392C370.566 11.4533 373.083 10.8986 376.155 10.728C381.446 10.728 384.988 12.52 386.78 16.104C388.572 19.6026 389.467 25.704 389.467 34.408C389.467 41.1493 389.083 47.08 388.315 52.2C388.913 54.0773 390.833 55.016 394.076 55.016C396.124 55.016 397.489 54.5893 398.172 53.736C398.94 52.7973 399.323 50.9626 399.323 48.232C399.323 44.2213 400.348 41.32 402.396 39.528C404.529 37.736 408.113 36.84 413.147 36.84C418.438 36.84 421.979 37.8213 423.771 39.784C425.649 41.6613 426.587 45.1173 426.587 50.152C426.587 55.4426 425.009 59.5386 421.852 62.44C418.694 65.3413 415.153 66.792 411.228 66.792C415.238 66.792 418.78 68.0293 421.852 70.504C425.009 72.8933 426.587 76.52 426.587 81.384C426.587 87.8693 425.692 92.0933 423.9 94.056C422.193 96.0186 418.609 97 413.147 97C408.113 97 404.529 96.104 402.396 94.312C400.348 92.4346 399.323 89.5333 399.323 85.608C399.323 83.6453 399.153 82.1946 398.811 81.256C398.47 80.232 398.001 79.592 397.404 79.336C396.892 78.9946 396.038 78.824 394.844 78.824Z" fill="#030712"/>
<path d="M436.316 18.1519C436.316 15.3359 437.511 13.0319 439.901 11.24C442.375 9.36262 445.831 8.42395 450.268 8.42395C459.57 8.42395 464.22 11.6666 464.22 18.1519C464.22 21.736 463.026 24.2533 460.637 25.7039C458.333 27.1546 454.876 27.88 450.268 27.88C446.258 27.88 442.93 27.112 440.284 25.576C437.639 24.04 436.316 21.5653 436.316 18.1519ZM464.092 83.304C464.092 88.424 463.026 92.008 460.892 94.056C458.759 96.0186 455.005 97 449.629 97C444.594 97 441.138 95.848 439.26 93.544C437.468 91.1546 436.573 87.272 436.573 81.896V50.408C436.573 46.056 437.725 42.5573 440.029 39.912C442.418 37.2666 445.575 35.944 449.5 35.944C454.108 35.944 457.693 36.968 460.253 39.016C462.813 40.9786 464.092 44.648 464.092 50.024V83.304Z" fill="#030712"/>
<path d="M514.996 62.568C514.996 57.7893 513.119 55.4 509.365 55.4C507.573 55.4 506.079 56.168 504.884 57.704C503.775 59.1546 503.135 61.1173 502.965 63.592V83.304C502.965 88.5093 501.898 92.0933 499.764 94.056C497.631 96.0186 493.876 97 488.5 97C483.466 97 480.01 95.848 478.133 93.544C476.341 91.1546 475.444 87.272 475.444 81.896V50.408C475.444 46.056 476.597 42.5573 478.901 39.912C481.29 37.2666 484.447 35.944 488.372 35.944C491.615 35.944 494.346 36.4133 496.565 37.352C498.783 38.2906 500.447 39.912 501.556 42.216C508.212 37.864 516.319 35.688 525.877 35.688C531.935 35.688 536.287 38.0773 538.932 42.856C541.663 47.6346 543.029 55.4853 543.029 66.408C543.029 71.784 542.9 76.1786 542.644 79.5919C542.388 82.9199 541.962 85.8213 541.365 88.296C540.853 90.6853 539.999 92.4773 538.805 93.672C537.61 94.8666 536.202 95.72 534.581 96.232C533.045 96.744 531.039 97 528.565 97C523.786 97 520.33 96.104 518.197 94.312C516.149 92.52 515.125 89.8746 515.125 86.376L514.996 62.568Z" fill="#030712"/>
<path d="M611.664 77.8C611.664 82.664 611.066 86.5466 609.872 89.448C608.677 92.264 607.013 94.2266 604.88 95.336C602.832 96.4453 600.101 97 596.688 97C591.653 97 587.984 95.6773 585.68 93.032C583.461 90.3013 582.309 85.5226 582.224 78.696L581.968 31.464H571.088C565.712 31.464 561.658 30.6106 558.927 28.904C556.282 27.1973 554.959 24.1679 554.959 19.8159C554.959 17.1706 555.471 15.08 556.495 13.544C557.605 12.008 559.226 10.9413 561.359 10.3439C563.493 9.66128 566.351 9.31995 569.935 9.31995H624.719C629.498 9.31995 632.954 10.1733 635.088 11.88C637.221 13.5866 638.287 16.5306 638.287 20.712C638.287 23.528 637.647 25.7466 636.367 27.368C635.173 28.904 633.551 29.9706 631.503 30.5679C629.455 31.1653 626.81 31.464 623.568 31.464H611.664V77.8Z" fill="#030712"/>
<path d="M688.179 76.136C692.531 76.136 695.347 75.0266 696.627 72.808C697.992 70.5893 698.674 66.792 698.674 61.416C698.674 58.856 698.674 52.968 698.674 43.752C698.76 34.4506 698.802 27.368 698.802 22.504C698.802 17.9813 699.869 14.6959 702.003 12.6479C704.221 10.5146 707.976 9.44795 713.266 9.44795C717.96 9.44795 721.459 10.6426 723.763 13.032C726.067 15.336 727.688 19.6026 728.627 25.8319C729.565 31.9759 730.034 41.3626 730.034 53.992C730.034 59.368 729.395 64.2746 728.115 68.712C726.92 73.1493 725.213 76.9466 722.995 80.104C720.861 83.176 718.429 85.9066 715.698 88.296C712.968 90.6 710.024 92.4346 706.867 93.8C703.709 95.1653 700.595 96.1893 697.523 96.872C694.451 97.5546 691.421 97.896 688.435 97.896C684.765 97.896 681.053 97.4693 677.299 96.616C673.629 95.6773 669.874 94.0986 666.034 91.88C662.28 89.6613 658.952 86.9733 656.05 83.816C653.149 80.5733 650.76 76.392 648.883 71.272C647.091 66.0666 646.195 60.3066 646.195 53.992C646.195 41.3626 646.706 31.9759 647.73 25.8319C648.754 19.6026 650.504 15.336 652.979 13.032C655.453 10.6426 659.25 9.44795 664.37 9.44795C669.149 9.44795 672.52 10.5146 674.482 12.6479C676.445 14.6959 677.427 17.9813 677.427 22.504C677.427 27.4533 677.427 34.5359 677.427 43.752C677.512 52.8826 677.555 58.728 677.555 61.288C677.555 63.5066 677.597 65.2986 677.682 66.664C677.853 67.944 678.109 69.2666 678.451 70.632C678.877 71.9973 679.474 73.064 680.242 73.832C681.01 74.5146 682.035 75.0693 683.315 75.496C684.595 75.9226 686.216 76.136 688.179 76.136Z" fill="#030712"/>
<path d="M84.2835 50.152L68.2835 82.92C66.9182 85.6506 65.4675 87.6133 63.9315 88.808C62.3955 89.9173 60.5608 90.472 58.4275 90.472C55.6968 90.472 53.3928 89.5333 51.5155 87.656C49.6382 85.6933 47.2062 82.1946 44.2195 77.16L29.3715 50.152V86.376C29.3715 90.0453 28.5182 92.7333 26.8115 94.44C25.1902 96.1466 22.7155 97 19.3875 97C15.6328 97 12.9022 96.1893 11.1955 94.568C9.48883 92.8613 8.6355 89.576 8.6355 84.712V28.904C8.6355 22.3333 10.1288 17.384 13.1155 14.056C16.1022 10.728 21.1368 9.06395 28.2195 9.06395C30.8648 9.06395 33.1688 9.53328 35.1315 10.4719C37.0942 11.3253 38.5448 12.3493 39.4835 13.544C40.5075 14.6533 41.4888 16.0613 42.4275 17.768L59.5795 55.272L77.7555 18.408C80.9128 12.2639 86.5875 9.19195 94.7795 9.19195C98.6195 9.19195 101.905 9.87462 104.636 11.24C107.366 12.52 109.5 14.6533 111.036 17.64C112.657 20.5413 113.468 24.2106 113.468 28.6479V84.328C113.382 92.776 108.049 97 97.4675 97C93.6275 97 90.4702 95.976 87.9955 93.928C85.6062 91.7946 84.3688 88.3813 84.2835 83.688V50.152Z" stroke="white" stroke-width="8" mask="url(#path-2-outside-2_15_12)"/>
<path d="M155.607 69.992C155.607 74.856 157.485 77.2879 161.24 77.2879C162.52 77.2879 163.629 76.904 164.568 76.136C165.592 75.2826 166.36 74.1306 166.872 72.68C167.384 71.2293 167.639 69.5653 167.639 67.688V50.536C167.639 47.6346 168.152 45.1173 169.176 42.984C170.2 40.7653 171.693 39.0586 173.656 37.864C175.618 36.6693 177.922 36.072 180.568 36.072C185.176 36.072 188.76 37.096 191.32 39.144C193.88 41.1066 195.16 44.776 195.16 50.152V83.432C195.16 88.6373 194.093 92.2213 191.96 94.184C189.826 96.1466 186.071 97.128 180.695 97.128C178.391 97.128 176.429 96.9146 174.807 96.488C173.186 95.976 171.863 95.2506 170.839 94.312C169.901 93.3733 169.175 92.136 168.663 90.6C165.165 92.904 161.453 94.5253 157.527 95.464C153.687 96.4026 149.378 96.872 144.6 96.872C138.541 96.872 134.189 94.5253 131.544 89.832C128.898 85.0533 127.576 77.2453 127.576 66.408C127.576 61.032 127.703 56.68 127.959 53.352C128.215 49.9386 128.599 47.0373 129.111 44.648C129.709 42.1733 130.562 40.3386 131.672 39.144C132.866 37.9493 134.232 37.096 135.768 36.584C137.389 36.072 139.48 35.816 142.04 35.816C146.818 35.816 150.231 36.712 152.279 38.504C154.413 40.296 155.479 42.984 155.479 46.568L155.607 69.992Z" stroke="white" stroke-width="8" mask="url(#path-2-outside-2_15_12)"/>
<path d="M240.344 78.824H235.736C235.736 83.2613 234.456 87.4 231.896 91.24C229.336 95.08 225.922 97 221.656 97C216.877 97 213.335 95.6773 211.031 93.032C208.813 90.3013 207.703 85.5226 207.703 78.696V26.088C207.703 22.4186 208.301 19.4746 209.495 17.256C210.69 14.952 212.226 13.3306 214.104 12.392C216.066 11.4533 218.584 10.8986 221.656 10.728C226.946 10.728 230.487 12.52 232.279 16.104C234.071 19.6026 234.967 25.704 234.967 34.408C234.967 41.1493 234.584 47.08 233.816 52.2C234.413 54.0773 236.333 55.016 239.576 55.016C241.624 55.016 242.989 54.5893 243.671 53.736C244.439 52.7973 244.824 50.9626 244.824 48.232C244.824 44.2213 245.848 41.32 247.896 39.528C250.029 37.736 253.613 36.84 258.648 36.84C263.938 36.84 267.479 37.8213 269.271 39.784C271.149 41.6613 272.087 45.1173 272.087 50.152C272.087 55.4426 270.509 59.5386 267.352 62.44C264.194 65.3413 260.653 66.792 256.727 66.792C260.738 66.792 264.28 68.0293 267.352 70.504C270.509 72.8933 272.087 76.52 272.087 81.384C272.087 87.8693 271.192 92.0933 269.4 94.056C267.693 96.0186 264.109 97 258.648 97C253.613 97 250.029 96.104 247.896 94.312C245.848 92.4346 244.824 89.5333 244.824 85.608C244.824 83.6453 244.653 82.1946 244.311 81.256C243.97 80.232 243.501 79.592 242.904 79.336C242.392 78.9946 241.538 78.824 240.344 78.824Z" stroke="white" stroke-width="8" mask="url(#path-2-outside-2_15_12)"/>
<path d="M305.112 97.768C298.371 97.768 292.782 95.0373 288.345 89.576C283.907 84.0293 281.689 76.4773 281.689 66.92C281.689 57.192 283.864 49.4693 288.216 43.752C292.654 37.9493 298.286 35.048 305.112 35.048C312.024 35.048 318.424 37.48 324.312 42.344C326.616 38.0773 330.328 35.944 335.448 35.944C340.056 35.944 343.641 36.968 346.201 39.016C348.761 40.9786 350.04 44.648 350.04 50.024V83.304C350.04 88.424 348.974 92.008 346.84 94.056C344.707 96.0186 340.953 97 335.577 97C329.945 97 326.232 95.4213 324.44 92.264C318.979 95.9333 312.536 97.768 305.112 97.768ZM322.521 54.632C321.07 52.1573 319.192 50.92 316.888 50.92C314.67 50.92 312.878 52.5413 311.513 55.784C310.147 59.0266 309.465 62.7386 309.465 66.92C309.465 70.8453 310.104 74.344 311.384 77.416C312.664 80.488 314.456 82.024 316.76 82.024C319.15 82.024 321.07 80.872 322.521 78.568V54.632Z" stroke="white" stroke-width="8" mask="url(#path-2-outside-2_15_12)"/>
<path d="M394.844 78.824H390.236C390.236 83.2613 388.956 87.4 386.396 91.24C383.836 95.08 380.422 97 376.155 97C371.377 97 367.835 95.6773 365.531 93.032C363.313 90.3013 362.203 85.5226 362.203 78.696V26.088C362.203 22.4186 362.801 19.4746 363.995 17.256C365.19 14.952 366.726 13.3306 368.603 12.392C370.566 11.4533 373.083 10.8986 376.155 10.728C381.446 10.728 384.988 12.52 386.78 16.104C388.572 19.6026 389.467 25.704 389.467 34.408C389.467 41.1493 389.083 47.08 388.315 52.2C388.913 54.0773 390.833 55.016 394.076 55.016C396.124 55.016 397.489 54.5893 398.172 53.736C398.94 52.7973 399.323 50.9626 399.323 48.232C399.323 44.2213 400.348 41.32 402.396 39.528C404.529 37.736 408.113 36.84 413.147 36.84C418.438 36.84 421.979 37.8213 423.771 39.784C425.649 41.6613 426.587 45.1173 426.587 50.152C426.587 55.4426 425.009 59.5386 421.852 62.44C418.694 65.3413 415.153 66.792 411.228 66.792C415.238 66.792 418.78 68.0293 421.852 70.504C425.009 72.8933 426.587 76.52 426.587 81.384C426.587 87.8693 425.692 92.0933 423.9 94.056C422.193 96.0186 418.609 97 413.147 97C408.113 97 404.529 96.104 402.396 94.312C400.348 92.4346 399.323 89.5333 399.323 85.608C399.323 83.6453 399.153 82.1946 398.811 81.256C398.47 80.232 398.001 79.592 397.404 79.336C396.892 78.9946 396.038 78.824 394.844 78.824Z" stroke="white" stroke-width="8" mask="url(#path-2-outside-2_15_12)"/>
<path d="M436.316 18.1519C436.316 15.3359 437.511 13.0319 439.901 11.24C442.375 9.36262 445.831 8.42395 450.268 8.42395C459.57 8.42395 464.22 11.6666 464.22 18.1519C464.22 21.736 463.026 24.2533 460.637 25.7039C458.333 27.1546 454.876 27.88 450.268 27.88C446.258 27.88 442.93 27.112 440.284 25.576C437.639 24.04 436.316 21.5653 436.316 18.1519ZM464.092 83.304C464.092 88.424 463.026 92.008 460.892 94.056C458.759 96.0186 455.005 97 449.629 97C444.594 97 441.138 95.848 439.26 93.544C437.468 91.1546 436.573 87.272 436.573 81.896V50.408C436.573 46.056 437.725 42.5573 440.029 39.912C442.418 37.2666 445.575 35.944 449.5 35.944C454.108 35.944 457.693 36.968 460.253 39.016C462.813 40.9786 464.092 44.648 464.092 50.024V83.304Z" stroke="white" stroke-width="8" mask="url(#path-2-outside-2_15_12)"/>
<path d="M514.996 62.568C514.996 57.7893 513.119 55.4 509.365 55.4C507.573 55.4 506.079 56.168 504.884 57.704C503.775 59.1546 503.135 61.1173 502.965 63.592V83.304C502.965 88.5093 501.898 92.0933 499.764 94.056C497.631 96.0186 493.876 97 488.5 97C483.466 97 480.01 95.848 478.133 93.544C476.341 91.1546 475.444 87.272 475.444 81.896V50.408C475.444 46.056 476.597 42.5573 478.901 39.912C481.29 37.2666 484.447 35.944 488.372 35.944C491.615 35.944 494.346 36.4133 496.565 37.352C498.783 38.2906 500.447 39.912 501.556 42.216C508.212 37.864 516.319 35.688 525.877 35.688C531.935 35.688 536.287 38.0773 538.932 42.856C541.663 47.6346 543.029 55.4853 543.029 66.408C543.029 71.784 542.9 76.1786 542.644 79.5919C542.388 82.9199 541.962 85.8213 541.365 88.296C540.853 90.6853 539.999 92.4773 538.805 93.672C537.61 94.8666 536.202 95.72 534.581 96.232C533.045 96.744 531.039 97 528.565 97C523.786 97 520.33 96.104 518.197 94.312C516.149 92.52 515.125 89.8746 515.125 86.376L514.996 62.568Z" stroke="white" stroke-width="8" mask="url(#path-2-outside-2_15_12)"/>
<path d="M611.664 77.8C611.664 82.664 611.066 86.5466 609.872 89.448C608.677 92.264 607.013 94.2266 604.88 95.336C602.832 96.4453 600.101 97 596.688 97C591.653 97 587.984 95.6773 585.68 93.032C583.461 90.3013 582.309 85.5226 582.224 78.696L581.968 31.464H571.088C565.712 31.464 561.658 30.6106 558.927 28.904C556.282 27.1973 554.959 24.1679 554.959 19.8159C554.959 17.1706 555.471 15.08 556.495 13.544C557.605 12.008 559.226 10.9413 561.359 10.3439C563.493 9.66128 566.351 9.31995 569.935 9.31995H624.719C629.498 9.31995 632.954 10.1733 635.088 11.88C637.221 13.5866 638.287 16.5306 638.287 20.712C638.287 23.528 637.647 25.7466 636.367 27.368C635.173 28.904 633.551 29.9706 631.503 30.5679C629.455 31.1653 626.81 31.464 623.568 31.464H611.664V77.8Z" stroke="white" stroke-width="8" mask="url(#path-2-outside-2_15_12)"/>
<path d="M688.179 76.136C692.531 76.136 695.347 75.0266 696.627 72.808C697.992 70.5893 698.674 66.792 698.674 61.416C698.674 58.856 698.674 52.968 698.674 43.752C698.76 34.4506 698.802 27.368 698.802 22.504C698.802 17.9813 699.869 14.6959 702.003 12.6479C704.221 10.5146 707.976 9.44795 713.266 9.44795C717.96 9.44795 721.459 10.6426 723.763 13.032C726.067 15.336 727.688 19.6026 728.627 25.8319C729.565 31.9759 730.034 41.3626 730.034 53.992C730.034 59.368 729.395 64.2746 728.115 68.712C726.92 73.1493 725.213 76.9466 722.995 80.104C720.861 83.176 718.429 85.9066 715.698 88.296C712.968 90.6 710.024 92.4346 706.867 93.8C703.709 95.1653 700.595 96.1893 697.523 96.872C694.451 97.5546 691.421 97.896 688.435 97.896C684.765 97.896 681.053 97.4693 677.299 96.616C673.629 95.6773 669.874 94.0986 666.034 91.88C662.28 89.6613 658.952 86.9733 656.05 83.816C653.149 80.5733 650.76 76.392 648.883 71.272C647.091 66.0666 646.195 60.3066 646.195 53.992C646.195 41.3626 646.706 31.9759 647.73 25.8319C648.754 19.6026 650.504 15.336 652.979 13.032C655.453 10.6426 659.25 9.44795 664.37 9.44795C669.149 9.44795 672.52 10.5146 674.482 12.6479C676.445 14.6959 677.427 17.9813 677.427 22.504C677.427 27.4533 677.427 34.5359 677.427 43.752C677.512 52.8826 677.555 58.728 677.555 61.288C677.555 63.5066 677.597 65.2986 677.682 66.664C677.853 67.944 678.109 69.2666 678.451 70.632C678.877 71.9973 679.474 73.064 680.242 73.832C681.01 74.5146 682.035 75.0693 683.315 75.496C684.595 75.9226 686.216 76.136 688.179 76.136Z" stroke="white" stroke-width="8" mask="url(#path-2-outside-2_15_12)"/>
</svg>
